# xmcd CD database file
#
# Track frame offsets:
#	150
#	18270
#	38960
#	68452
#	85780
#	102835
#	123022
#	141002
#	163745
#	181095
#
# Disc length: 2745 seconds
#
# Revision: 6
# Processed by: cddbd v1.5.2PL0 Copyright (c) Steve Scherf et al.
# Submitted via: CDex 1.74
#
DISCID=700ab70a
DTITLE=REO Speedwagon / A Decade Of Rock And Roll 1970 To 1980 (Disc 1)
DYEAR=1980
DGENRE=Rock
TTITLE0=Sophisticated Lady (Lead Vocal Terry Luttrell)
TTITLE1=Music Man (Lead Vocal Kevin Cronin)
TTITLE2=Golden Country (Lead Vocal Kevin Cronin)
TTITLE3=Son Of A Poor Man (Lead Vocal Kevin Cronin)
TTITLE4=Lost In A Dream (Lead Vocal Mike Murphy)
TTITLE5=Reelin' (Lead Vocal Mike Murphy)
TTITLE6=Keep Pushin' (Lead Vocal Kevin Cronin)
TTITLE7=(I Believe) Our Time Is Gonna Come (Lead Vocal Kevin Cronin)
TTITLE8=Breakaway (Vocals Gary Richrath Kevin Cronin)
TTITLE9=Lightning (Lead Vocal Kevin Cronin)
EXTD= YEAR: 1980
EXTT0=
EXTT1=
EXTT2=
EXTT3=
EXTT4=
EXTT5=
EXTT6=
EXTT7=
EXTT8=
EXTT9=
PLAYORDER=
.
